<?xml version="1.0" encoding="UTF-8"?>
<svg id="Layer_1" data-name="Layer 1" xmlns="http://www.w3.org/2000/svg" viewBox="0 0 1920 1080">
  <defs>
    <style>
      .cls-1 {
        fill: #11505c;
      }

      .cls-1, .cls-2, .cls-3 {
        stroke-width: 0px;
      }

      .cls-2 {
        fill: #f29b06;
      }

      .cls-3 {
        fill: #1a2e49;
      }
    </style>
  </defs>
  <path class="cls-3" d="m1054.26,377.86c3.11,22.11,3.13,44.27,2.01,66.55-4.28,85.1-32.99,161.35-82.31,230.32-44.34,62.01-99.85,112.08-163.48,153.54-4.6,3-8.64,3.15-13.29.05-28.67-19.16-55.28-40.71-80.88-63.92-35.96-32.61-68.06-68.27-94.69-108.72-35.72-54.24-59.64-113.39-67.44-178.02-12.83-106.24,12.03-203.51,73.77-291.02,45.34-64.27,100.08-119.04,166.07-162.31,7.36-4.83,12.81-4.75,20.09.09,84.94,56.51,153.15,128.3,200.2,219.26,20.91,40.42,33.48,83.62,39.58,128.7.25,1.81.25,3.65.37,5.48Zm-249.89,414.15c3.24-2.69,6.48-5.61,9.95-8.23,32.67-24.57,64.11-50.45,91.62-80.92,79.15-87.64,122.34-188.55,113.92-308.39-3.7-52.73-18.8-102.32-44.33-148.58-40.32-73.07-97.79-130.56-164.18-179.92-5.64-4.19-10.03-4.26-15.53-.14-27.1,20.31-53.35,41.55-76.75,66.18-16.75,17.64-32.67,35.94-47.42,55.55,4.97,11.03,9.88,21.93,15.28,33.9,2.4-3.15,3.92-5.07,5.36-7.05,29.21-40.33,63.46-75.71,103.23-105.74,5.87-4.43,11.14-4.4,16.85-.13,14.81,11.09,28.79,23.16,42.25,35.83,29.42,27.7,55.28,58.39,78.06,93.02-3.15,0-5.43,0-7.71,0-46.15.16-92.3.56-138.45.27-8.7-.06-14.94,2.89-20.71,8.68-24.12,24.2-47.04,49.48-69.08,75.6-7.7,9.13-11.01,18.71-10.93,30.86.48,74.16.27,148.32.24,222.48-.01,31.23,3.76,63.01-14.36,91.07,37.57,50.32,85.11,87.8,132.68,125.66Zm-215.3-332.2c1.85,23.91,5.68,46.57,12.14,68.94,8.93-11.9,17.54-23.38,26.24-34.97-12.74-11.27-25.16-22.27-38.38-33.97Zm8.23-124.46c-5.42,22.2-8.08,43.65-9.17,66.18,13.1-11.41,25.56-22.26,38.02-33.12-9.6-11-18.87-21.63-28.85-33.06Zm68.83-76.79c-5.65-13.88-10.74-26.35-16.29-39.99-12.27,17.79-22.57,35.08-30.15,54.57,15.47-4.86,30.69-9.63,46.45-14.57Zm-43.03,330.42c9.74,16.38,18.81,31.64,28.31,47.61,3.88-11.97,7.48-23.06,10.99-33.9-12.48-4.35-25.17-8.78-39.3-13.71Zm3.2-136.16v-43.33c-8.71,7.61-16.74,14.63-25.58,22.37,8.57,7.02,16.45,13.48,25.58,20.97Zm-7.37,102.28c11.16,3.17,20.18,8.54,31.38,9.76-3.93-12.36-7.43-23.37-11.06-34.78-6.72,8.27-13.17,16.21-20.32,25.02Zm29.52-259.21c-11.49,3.95-21.83,7.51-32.63,11.22,7.04,8.28,13.67,16.1,20.4,24.02,3.98-11.47,7.8-22.48,12.22-35.24Z"/>
  <path class="cls-3" d="m842.38,893.19h19.06v96.51h-18.4c-12.01-19.95-24.27-40.33-36.88-61.27v61.05h-18.98v-96.18c9.92-.38,19.15-3,25.32,9.58,8.4,17.11,19.26,33.01,29.88,50.79v-60.48Z"/>
  <path class="cls-3" d="m608.35,893.18h18.85v37.78h34.56v-37.51h19.7v96.24h-19.63v-40.16h-34.26v40.06h-19.2v-96.41Z"/>
  <path class="cls-3" d="m968.15,990.37v-96.91h18.73v39.07c11.13-13.7,21.46-26.43,32.01-39.42h22.69c-11.23,13.83-21.31,26.24-31.52,38.82,10.99,18.74,22.01,37.54,33.18,56.59-13.27,4.67-22.35,1.56-28.28-8.62-6.08-10.45-12.11-20.92-18.07-31.21-14.86,10.18-6.19,26.05-9.51,39.55-5.8,3.66-12.36.88-19.24,2.12Z"/>
  <path class="cls-3" d="m722.1,893.13h22.78c10.68,31.33,21.5,63.08,32.62,95.7-6.94,2.52-13.69.51-20.93,1.43-2.48-7.04-4.92-13.97-7.51-21.34h-31c-2.47,6.94-4.94,13.86-7.38,20.69h-20.8c10.91-32.67,21.57-64.61,32.21-96.49Zm.68,57.93h21.11c-3.39-11.42-6.69-22.59-10.25-34.6-3.76,11.98-7.24,23.07-10.86,34.6Z"/>
  <path class="cls-3" d="m897.06,893.2c0,20.93-.03,41.22.01,61.52.03,11.98,5.81,18.9,15.9,19.22,11.47.37,19.85-7.7,19.91-19.47.1-20.28.03-40.57.03-61.19h18.75c.15,2.36.41,4.6.42,6.85.06,16.99-.74,34.03.25,50.96,2.18,37.18-27.33,44.86-52.75,38.36-11.54-2.95-18.77-10.95-20.69-21.92-4.29-24.53-.94-49.36-1.75-74.33h19.91Z"/>
  <path class="cls-3" d="m1105.43,968.8h-31.4c-2.43,7.15-4.79,14.11-7.08,20.85h-20.41c10.77-32.48,21.32-64.32,32.06-96.69h22.4c10.65,31.9,21.31,63.82,32.24,96.55h-20.65c-2.29-6.63-4.65-13.43-7.17-20.71Zm-26.42-17.88h21.37c-3.41-11.52-6.63-22.38-10.19-34.42-3.99,12.29-7.53,23.18-11.18,34.42Z"/>
  <path class="cls-3" d="m594.66,916.81c-5.33,1.8-10.63,3.58-16.35,5.51-5.78-12.53-16.14-14.83-27.84-10.96-12.49,4.14-15.37,14.96-15.37,26.73,0,5.79,0,11.76,1.29,17.34,2,8.63,7.53,14.25,16.56,16.63,12.68,3.34,20.42-2.96,27.11-12.97,5.39,2.32,10.79,4.64,16.04,6.91-2.6,14.66-21.13,25.8-39.75,25.71-21.44-.1-40.37-19.14-42.18-45.6-2.22-32.39,17.33-56.07,47.89-55.07,12.86.42,23.87,5.23,30.98,16.74,1.6,2.59,2.68,5.33,1.62,9.03Z"/>
  <path class="cls-1" d="m984.8,444.96c-1,10.03-1.99,20.06-2.99,30.09-4.11,6.95-3.19,15.04-5.11,22.5-3.21,12.53-6.08,25.14-9.09,37.72,0,0,.04.29.04.29-2.21.21-1.54,1.5-1.02,2.73,0,0,0,.24,0,.24-2.03.04-1.5,1.5-1.49,2.67,0,0,.12-.13.12-.13-.38,1.03-.76,2.07-1.14,3.1,0,0,.08-.09.08-.09-2.35,1.48-2.29,3.78-2.06,6.13,0,0,.08-.12.08-.12-3.21,1.73-2.97,4.87-3.19,7.83-18.11,46.78-45.09,87.88-79.55,124.19-.71.78-1.42,1.57-2.13,2.35,0,0,.1-.11.1-.11-.34.38-.69.76-1.03,1.14,0,0,.06-.07.06-.07-.32.36-.64.72-.95,1.08l-.46-.18s.45.21.45.21c-1.99-.27-2.39,1-2.48,2.57,0,0,.04-.04.04-.04-2.39.53-4.49,1.34-4.21,4.41-.02.3-.18.45-.48.43-.25.02-.5.04-.74.06.09.14.17.27.26.41,0,.34-.16.51-.5.52-.25.02-.5.05-.76.08.08.14.17.28.25.41,0,.34-.16.51-.5.51-.25.03-.51.05-.76.08.08.14.17.28.25.42.02.27-.1.42-.37.45-.49.45-.99.9-1.48,1.35-.3.29-.6.58-.9.87-.48.5-.96,1-1.44,1.5,0,0-.21.18-.22.18-.25.25-.5.49-.75.74,0,0-.25.25-.25.25-.28.26-.56.52-.84.78,0,0-.14.14-.14.14-.29.29-.58.58-.86.87,0,0-.14.14-.14.14-.3.29-.59.58-.89.86,0,0-.12.1-.12.1-.39.29-.78.57-1.16.86,0,0,.11-.13.11-.13-.4.36-.79.72-1.18,1.08,0,0,.13-.23.13-.23-.45.46-.89.93-1.34,1.39-13.1,12.84-27.41,24.22-42.45,34.65-4.48,3.1-9.18,4.14-14.42.15-15.05-11.47-29.75-23.2-43.27-36.57-11-10.88-22.24-21.47-32.22-33.33-2.11-2.5-3.4-5.24-3.55-8.51.29-1.76.85-3.51.85-5.27.04-100.62.04-201.25,0-301.87,0-1.59-.53-3.19-.81-4.78,2-10.17,10.1-16.19,16.37-23.29,15.76-17.84,32-35.26,47.98-52.91,2.88-3.18,6.16-4.68,10.5-4.67,49.63.13,99.26.32,148.89.09,9.99-.05,12.2,6.77,14.99,13.74-.11.12-.21.24-.32.36.2.18.41.36.61.54,0,0-.07-.09-.07-.09-.01,1.17-.47,2.59,1.46,2.72,0,0-.02.15-.02.15-.04,4.68,1.25,8.86,4.66,12.22,0,0-.08-.11-.08-.11.34,4.34.38,8.8,4.44,11.73,0,0-.06.19-.07.19-.53,1.26-.78,2.45.78,3.19,0,0-.12-.13-.12-.13,3.13,13.15,6.14,26.33,9.44,39.43,1.48,5.89.36,12.4,4.17,17.73.65,5.36,1.3,10.73,1.95,16.09-.38.74-1.12,1.48-1.1,2.2.39,10.7.9,21.39,1.34,32.09.3,7.21.55,14.42.82,21.63Zm-61.01-103.6c-.38-.38-.77-.76-1.15-1.14l.22.19c-1.3-.48-2.59-1.36-3.89-1.36-24.96-.08-49.93-.07-74.89-.03-.69,0-2.19-.82-1.95,1.09-3.68,8.79-3,17.65-.42,26.54,1.35.46,2.69,1.32,4.04,1.32,24.43.08,48.87.06,73.3.05,1.46,0,3.08.28,3.82-1.56.25-.19.51-.38.76-.57,4.18-8.26,1.87-16.52-.03-24.77l.2.24Zm-83.65,155.92l.15-.14c-3.36,3.29-3.3,20.83.09,24.72l.68.88c.31.42.61.84.92,1.26.9.33,1.8.94,2.71.94,24.38.05,48.76.04,73.13.05,1.36,0,2.72.02,3.1-1.73.36-.03.72-.06,1.09-.1l.92-.29c.28-.31.56-.62.84-.93,1.86-8.31,2.36-16.6-.3-24.86-.36.05-.55-.1-.57-.46-.82-2.08-2.66-1.64-4.25-1.64-24.39-.02-48.78-.03-73.18,0-1.57,0-3.41-.53-4.41,1.4v-.26s.26.06.26.06c-.4.37-.8.73-1.2,1.1Zm2.87-52.04c.52,2.02,2.17,1.74,3.63,1.74,23.49,0,46.98,0,70.47,0,1.47,0,3.1.24,3.73-1.67.83-.46,1.67-.91,2.5-1.37,4.54-8.29,3.67-16.58-.04-24.86h-.33s-.16-.29-.16-.29c-.66-2.25-2.55-1.77-4.13-1.77-24.46-.03-48.91-.03-73.37,0-1.58,0-3.46-.49-4.21,1.68-2.3,3.85-1.27,8.13-.92,12.06.42,4.86-3.08,10.68,2.81,14.5Zm-25.77-84.41c.05-12.35-9.4-21.87-21.69-21.86-11.69.01-21.43,9.97-21.36,21.85.07,12,9.52,21.34,21.71,21.44,12.18.11,21.29-9.04,21.34-21.43Zm.04,67.79c.55-11.7-8.89-22.07-20.55-22.58-11.66-.51-21.79,8.88-22.43,20.78-.63,11.62,9.26,22.34,21.07,22.85,11.72.51,21.33-8.72,21.91-21.05Zm-.13,66.13c.24-12.46-8.91-22.21-21.1-22.5-11.02-.26-21.43,9.92-21.69,21.2-.27,11.91,9.57,22.37,21.28,22.62,12.03.25,21.27-8.91,21.51-21.32Z"/>
  <path class="cls-3" d="m718.18,352.03c.28,1.59.81,3.19.81,4.78.04,100.62.04,201.25,0,301.87,0,1.76-.55,3.51-.85,5.27-.12-43.59-.3-87.17-.36-130.76-.08-57.74-.09-115.47-.1-173.21,0-2.65.32-5.3.5-7.96Z"/>
  <path class="cls-3" d="m967.61,535.26c3.01-12.58,5.88-25.19,9.09-37.72,1.91-7.46.99-15.55,5.11-22.5-2.77,20.54-7.16,40.69-14.2,60.22Z"/>
  <path class="cls-3" d="m981.78,372.93c-3.81-5.33-2.69-11.84-4.17-17.73-3.3-13.11-6.31-26.28-9.44-39.43,7.2,18.42,10.76,37.7,13.61,57.16Z"/>
  <path class="cls-3" d="m984.8,444.96c-.27-7.21-.52-14.42-.82-21.63-.45-10.7-.95-21.39-1.34-32.09-.03-.72.71-1.47,1.1-2.2,1.95,18.61,1.58,37.27,1.07,55.93Z"/>
  <path class="cls-3" d="m963.23,300.9c-3.41-3.37-4.7-7.54-4.66-12.22,1.55,4.07,3.11,8.15,4.66,12.22Z"/>
  <path class="cls-3" d="m967.59,312.52c-4.06-2.93-4.1-7.39-4.44-11.73,1.48,3.91,2.96,7.82,4.44,11.73Z"/>
  <path class="cls-3" d="m959.03,557.9c.22-2.95-.02-6.09,3.19-7.83-1.06,2.61-2.13,5.22-3.19,7.83Z"/>
  <path class="cls-3" d="m962.14,550.2c-.23-2.35-.28-4.64,2.06-6.13-.69,2.04-1.38,4.09-2.06,6.13Z"/>
  <path class="cls-3" d="m868.87,693.46c-.28-3.08,1.82-3.88,4.21-4.41-1.4,1.47-2.81,2.94-4.21,4.41Z"/>
  <path class="cls-3" d="m873.04,689.08c.09-1.57.48-2.84,2.48-2.57-.82.86-1.65,1.71-2.48,2.57Z"/>
  <path class="cls-3" d="m958.59,288.53c-1.93-.13-1.47-1.54-1.46-2.72.49.91.97,1.81,1.46,2.72Z"/>
  <path class="cls-3" d="m968.3,315.9c-1.56-.75-1.31-1.93-.78-3.19.26,1.06.52,2.13.78,3.19Z"/>
  <path class="cls-3" d="m964.13,544.17c.38-1.03.76-2.07,1.14-3.1-.38,1.03-.76,2.07-1.14,3.1Z"/>
  <path class="cls-3" d="m965.14,541.2c0-1.17-.54-2.63,1.49-2.67-.5.89-.99,1.78-1.49,2.67Z"/>
  <path class="cls-3" d="m877.35,684.44c.71-.78,1.42-1.57,2.13-2.35-.71.78-1.42,1.57-2.13,2.35Z"/>
  <path class="cls-3" d="m966.63,538.28c-.52-1.23-1.19-2.52,1.02-2.73-.34.91-.68,1.82-1.02,2.73Z"/>
  <path class="cls-3" d="m864.05,698.17c.49-.45.99-.9,1.48-1.35-.49.45-.99.9-1.48,1.35Z"/>
  <path class="cls-3" d="m861.71,700.54c.48-.5.96-1,1.44-1.5-.48.5-.96,1-1.44,1.5Z"/>
  <path class="cls-3" d="m876.43,685.47c.34-.38.68-.76,1.03-1.14-.34.38-.69.76-1.03,1.14Z"/>
  <path class="cls-3" d="m867.91,694.36c-.09-.14-.17-.27-.26-.41.25-.02.49-.04.74-.06-.1.22-.26.38-.49.47Z"/>
  <path class="cls-3" d="m865.89,696.37c-.08-.14-.17-.28-.25-.42.25-.03.5-.05.76-.08-.11.23-.27.4-.51.49Z"/>
  <path class="cls-3" d="m860.75,701.46c.25-.25.5-.49.75-.74-.25.25-.5.49-.75.74Z"/>
  <path class="cls-3" d="m957.2,285.9c-.2-.18-.41-.36-.61-.54.11-.12.21-.24.32-.36.19.27.29.57.29.9Z"/>
  <path class="cls-3" d="m859.66,702.49c.28-.26.56-.52.84-.78-.28.26-.56.52-.84.78Z"/>
  <path class="cls-3" d="m858.65,703.49c.29-.29.58-.58.86-.87-.29.29-.58.58-.86.87Z"/>
  <path class="cls-3" d="m857.62,704.49c.3-.29.59-.58.89-.86-.3.29-.59.58-.89.86Z"/>
  <path class="cls-3" d="m856.34,705.45c.39-.29.77-.58,1.16-.86-.39.29-.77.58-1.16.86Z"/>
  <path class="cls-3" d="m855.26,706.4c.39-.36.79-.72,1.18-1.08-.39.36-.79.72-1.18,1.08Z"/>
  <path class="cls-3" d="m854.06,707.56c.45-.46.89-.93,1.34-1.39-.45.46-.89.93-1.34,1.39Z"/>
  <path class="cls-3" d="m875.53,686.48c.32-.36.63-.72.95-1.08-.32.36-.64.72-.95,1.08Z"/>
  <path class="cls-3" d="m866.9,695.36c-.08-.14-.17-.28-.25-.41.25-.03.5-.05.76-.08-.1.23-.27.39-.5.49Z"/>
  <path class="cls-2" d="m817.25,360.83c-.05,12.39-9.15,21.54-21.34,21.43-12.19-.11-21.64-9.45-21.71-21.44-.07-11.88,9.67-21.84,21.36-21.85,12.29-.01,21.73,9.51,21.69,21.86Z"/>
  <path class="cls-2" d="m817.28,428.62c-.58,12.33-10.19,21.57-21.91,21.05-11.82-.52-21.7-11.24-21.07-22.85.64-11.9,10.77-21.29,22.43-20.78,11.65.51,21.1,10.88,20.55,22.58Z"/>
  <path class="cls-2" d="m817.16,494.75c-.24,12.4-9.48,21.57-21.51,21.32-11.71-.24-21.55-10.7-21.28-22.62.26-11.28,10.67-21.46,21.69-21.2,12.19.28,21.34,10.04,21.1,22.5Z"/>
  <path class="cls-3" d="m852.01,523.36c4,0,7.99,0,11.99,0,.67,0,1.34,0,2,0,1.99,0,3.98-.02,5.97-.02.34,0,.69,0,1.03.01,6.32,0,12.65,0,18.97.01.34,0,.68,0,1.03,0,4.33,0,8.66-.01,13-.02,2.34,1.04,4.67,1.11,6.99-.05,2.65-.01,5.3-.02,7.95-.04-.38,1.75-1.75,1.73-3.1,1.73-24.38,0-48.76,0-73.13-.05-.9,0-1.8-.61-2.71-.94,0,0,0,0,0,0,2.33-.21,4.67-.43,7-.64.67,0,1.33,0,2,0,.34,0,.68,0,1.02,0Z"/>
  <path class="cls-3" d="m843.02,445.25c25.95.02,51.89.04,77.84.06-.63,1.91-2.26,1.67-3.73,1.67-23.49.01-46.98.01-70.47,0-1.47,0-3.12.28-3.63-1.74Z"/>
  <path class="cls-3" d="m922.86,340.41c-26.91-.1-53.82-.2-80.73-.3-.23-1.9,1.27-1.09,1.95-1.09,24.96-.05,49.93-.06,74.89.03,1.3,0,2.59.89,3.89,1.36Z"/>
  <path class="cls-3" d="m922.93,496.63c-27.28-.08-54.56-.16-81.84-.24,1-1.93,2.84-1.4,4.41-1.4,24.39-.03,48.78-.02,73.18,0,1.59,0,3.43-.44,4.25,1.64Z"/>
  <path class="cls-3" d="m922.83,418.78c-27.23-.03-54.47-.07-81.7-.1.76-2.17,2.63-1.68,4.21-1.68,24.46-.02,48.91-.02,73.37,0,1.57,0,3.47-.48,4.13,1.77Z"/>
  <path class="cls-3" d="m841.71,366.64c27.05-.06,54.1-.12,81.16-.18-.73,1.84-2.36,1.56-3.82,1.56-24.43.01-48.87.03-73.3-.05-1.35,0-2.69-.86-4.04-1.32Z"/>
  <path class="cls-3" d="m840.3,497.14c.03,8.24.06,16.48.09,24.72-3.39-3.89-3.46-21.43-.09-24.72Z"/>
  <path class="cls-3" d="m923.36,443.94c1.04-8.29,1.06-16.58-.04-24.86,3.71,8.28,4.57,16.57.04,24.86Z"/>
  <path class="cls-3" d="m923.63,365.89c0-8.26-.02-16.51-.03-24.77,1.9,8.25,4.21,16.51.03,24.77Z"/>
  <path class="cls-3" d="m923.8,521.95c-.1-8.29-.2-16.57-.3-24.86,2.66,8.25,2.16,16.55.3,24.86Z"/>
  <path class="cls-3" d="m923.8,341.36c-.38-.38-.77-.76-1.15-1.14.38.38.77.76,1.15,1.14Z"/>
  <path class="cls-3" d="m841.35,496.18c-.4.37-.8.73-1.2,1.1.4-.37.8-.73,1.2-1.1Z"/>
  <path class="cls-3" d="m922.03,523.16c.3-.13.61-.22.92-.29l-.92.29Z"/>
  <path class="cls-3" d="m841.08,522.73c.33.06.63.19.91.39,0,.29,0,.59,0,.88,0,0,0,0,0,0-.31-.42-.61-.84-.92-1.26Z"/>
  <path class="cls-1" d="m842,524c0-.29,0-.59,0-.88,2.33.08,4.67.16,7,.24-2.33.21-4.67.43-7,.64Z"/>
  <path class="cls-1" d="m913,523.29c-2.32,1.15-4.65,1.09-6.99.05,2.33-.02,4.66-.03,6.99-.05Z"/>
  <path class="cls-1" d="m866.01,523.36c-.67,0-1.33,0-2,0,.67,0,1.33,0,2,0Z"/>
  <path class="cls-1" d="m893.02,523.36c-.34,0-.68,0-1.03,0,.34,0,.68,0,1.03,0Z"/>
  <path class="cls-1" d="m873.02,523.35c-.34,0-.69,0-1.03-.01.34,0,.69,0,1.03.01Z"/>
  <path class="cls-1" d="m852.01,523.36c-.34,0-.68,0-1.02,0,.34,0,.68,0,1.02,0Z"/>
</svg>